<svg width="18" height="19" viewBox="0 0 18 19" fill="none" xmlns="http://www.w3.org/2000/svg">
<path d="M14.6228 6.49183L9.00006 11.9728L3.37731 6.49183C3.27685 6.39371 3.14199 6.33877 3.00156 6.33877C2.86112 6.33877 2.72627 6.39371 2.62581 6.49183C2.57716 6.53949 2.53852 6.59638 2.51214 6.65916C2.48576 6.72194 2.47217 6.78936 2.47217 6.85746C2.47217 6.92556 2.48576 6.99297 2.51214 7.05575C2.53852 7.11853 2.57716 7.17542 2.62581 7.22308L8.60743 13.0551C8.71248 13.1575 8.85336 13.2148 9.00006 13.2148C9.14675 13.2148 9.28763 13.1575 9.39268 13.0551L15.3743 7.22421C15.4233 7.17651 15.4622 7.11948 15.4888 7.05649C15.5154 6.9935 15.5291 6.92583 15.5291 6.85746C15.5291 6.78909 15.5154 6.72141 15.4888 6.65842C15.4622 6.59543 15.4233 6.5384 15.3743 6.49071C15.2738 6.39258 15.139 6.33765 14.9986 6.33765C14.8581 6.33765 14.7233 6.39258 14.6228 6.49071V6.49183Z" fill="white" stroke="white"/>
</svg>
