<svg width="18" height="18" viewBox="0 0 18 18" fill="none" xmlns="http://www.w3.org/2000/svg">
<path d="M3.37719 12.0082L8.99995 6.52717L14.6227 12.0082C14.7232 12.1063 14.858 12.1612 14.9984 12.1612C15.1389 12.1612 15.2737 12.1063 15.3742 12.0082C15.4228 11.9605 15.4615 11.9036 15.4879 11.8408C15.5142 11.7781 15.5278 11.7106 15.5278 11.6425C15.5278 11.5744 15.5142 11.507 15.4879 11.4442C15.4615 11.3815 15.4228 11.3246 15.3742 11.2769L9.39257 5.44492C9.28752 5.34253 9.14664 5.28522 8.99995 5.28522C8.85325 5.28522 8.71237 5.34253 8.60732 5.44492L2.62569 11.2758C2.57671 11.3235 2.53777 11.3805 2.51119 11.4435C2.4846 11.5065 2.47091 11.5742 2.47091 11.6425C2.47091 11.7109 2.4846 11.7786 2.51119 11.8416C2.53777 11.9046 2.57671 11.9616 2.62569 12.0093C2.72615 12.1074 2.86101 12.1624 3.00144 12.1624C3.14188 12.1624 3.27673 12.1074 3.37719 12.0093L3.37719 12.0082Z" fill="white" stroke="white"/>
</svg>
